<svg width="864" height="864" viewBox="0 0 864 864" fill="none" xmlns="http://www.w3.org/2000/svg">
<path d="M107.8 312.9L462.4 604.6L631.4 489.8L658.2 471.5C659.1 470.9 712.3 434.2 752.6 383.8C778.5 347.7 794.9 304.8 798.4 260.4C802.2 210.3 786.1 158.3 751.7 121.2C720 87.8 678 65.5 634.4 52.1C569.2 31.6 498.9 30.6 432.3 44.3C394.9 52.1 358.7 65.3 325.2 83.8C291 104.6 258.4 128 225.3 150.6C167.6 190.8 112.3 229.2 54.5996 269.3L107.7 313L107.8 312.9Z" fill="black"/>
<path d="M462.4 714.7L640.7 591.3L674.2 568C674.4 567.9 677 566 681.5 562.6C696.2 551.3 730.9 523.1 761.7 485C785.6 452.2 807 409 806.9 359.6C765.8 436.1 680.9 494.6 676.2 497.8L462.4 644.8L100.2 348.1L51 382.1L144.3 458L462.4 714.7Z" fill="black"/>
<path d="M692.5 594.3L462.4 754.7L98.8998 462.5L50.7998 494.3L462.4 827.2C517.8 788.7 571 750.2 625 711.8C645.7 698.4 663.7 685.5 679.3 673.3C738.5 627.3 764.3 591.4 774.5 574C782.1 560 788.8 544.3 793.9 526.9C798.6 510.6 800.1 498.1 800.1 487.8C788.4 504.7 779.1 515.2 763.1 532.2C727.2 570.1 693.9 593.4 692.5 594.3Z" fill="black"/>
</svg>
